<svg xmlns="http://www.w3.org/2000/svg" xmlns:xlink="http://www.w3.org/1999/xlink"><defs><symbol viewBox="0 0 75.3 75.3" id="icon-email"><path d="M66.1 12H9.2c-5 0-9.2 4.2-9.2 9.3V54c0 5 4.1 9.2 9.2 9.2h56.9c5 0 9.2-4.1 9.2-9.2V21.3c0-5-4.1-9.2-9.2-9.2zm-4.5 6-24 15.5-24-15.4h48zm4.5 39.2H9.2A3.2 3.2 0 0 1 6 54V21.5l29.8 19.1h.1l.2.2.7.2.8.1h.9a3.5 3.5 0 0 0 .9-.4h.1l29.8-19.2V54c0 1.8-1.4 3.2-3.2 3.2z" /></symbol><symbol viewBox="0 0 14.002 30" id="icon-facebook"><path d="M7.986 30V14.98h4.956l.783-4.977H7.986V7.507c0-1.299.426-2.539 2.29-2.539h3.726V0H8.713C4.266 0 3.052 2.929 3.052 6.988V10H0v4.98h3.052V30h4.934z" /></symbol><symbol viewBox="0 0 32 32" id="icon-google"><path d="M16.319 13.713V19.2h9.075c-.369 2.356-2.744 6.9-9.075 6.9C10.856 26.1 6.4 21.575 6.4 16s4.456-10.1 9.919-10.1c3.106 0 5.188 1.325 6.375 2.469l4.344-4.181C24.25 1.576 20.638 0 16.319 0c-8.844 0-16 7.156-16 16s7.156 16 16 16c9.231 0 15.363-6.494 15.363-15.631 0-1.05-.113-1.85-.25-2.65l-15.113-.006z" /></symbol><symbol viewBox="0 0 32 32" id="icon-instagram"><path d="M16 2.881c4.275 0 4.781.019 6.462.094 1.563.069 2.406.331 2.969.55a4.952 4.952 0 0 1 1.837 1.194 5.015 5.015 0 0 1 1.2 1.838c.219.563.481 1.412.55 2.969.075 1.688.094 2.194.094 6.463s-.019 4.781-.094 6.463c-.069 1.563-.331 2.406-.55 2.969a4.94 4.94 0 0 1-1.194 1.837 5.02 5.02 0 0 1-1.837 1.2c-.563.219-1.413.481-2.969.55-1.688.075-2.194.094-6.463.094s-4.781-.019-6.463-.094c-1.563-.069-2.406-.331-2.969-.55a4.952 4.952 0 0 1-1.838-1.194 5.02 5.02 0 0 1-1.2-1.837c-.219-.563-.481-1.413-.55-2.969-.075-1.688-.094-2.194-.094-6.463s.019-4.781.094-6.463c.069-1.563.331-2.406.55-2.969a4.964 4.964 0 0 1 1.194-1.838 5.015 5.015 0 0 1 1.838-1.2c.563-.219 1.412-.481 2.969-.55 1.681-.075 2.188-.094 6.463-.094zM16 0c-4.344 0-4.887.019-6.594.094-1.7.075-2.869.35-3.881.744-1.056.412-1.95.956-2.837 1.85a7.833 7.833 0 0 0-1.85 2.831C.444 6.538.169 7.7.094 9.4.019 11.113 0 11.656 0 16s.019 4.887.094 6.594c.075 1.7.35 2.869.744 3.881.413 1.056.956 1.95 1.85 2.837a7.82 7.82 0 0 0 2.831 1.844c1.019.394 2.181.669 3.881.744 1.706.075 2.25.094 6.594.094s4.888-.019 6.594-.094c1.7-.075 2.869-.35 3.881-.744 1.05-.406 1.944-.956 2.831-1.844s1.438-1.781 1.844-2.831c.394-1.019.669-2.181.744-3.881.075-1.706.094-2.25.094-6.594s-.019-4.887-.094-6.594c-.075-1.7-.35-2.869-.744-3.881a7.506 7.506 0 0 0-1.831-2.844A7.82 7.82 0 0 0 26.482.843C25.463.449 24.301.174 22.601.099c-1.712-.081-2.256-.1-6.6-.1z" /><path d="M16 7.781c-4.537 0-8.219 3.681-8.219 8.219s3.681 8.219 8.219 8.219 8.219-3.681 8.219-8.219A8.221 8.221 0 0 0 16 7.781zm0 13.55a5.331 5.331 0 1 1 0-10.663 5.331 5.331 0 0 1 0 10.663zM26.462 7.456a1.919 1.919 0 1 1-3.838 0 1.919 1.919 0 0 1 3.838 0z" /></symbol><symbol viewBox="0 0 32 32" id="icon-linkedin"><path d="M12 12h5.535v2.837h.079c.77-1.381 2.655-2.837 5.464-2.837C28.92 12 30 15.637 30 20.367V30h-5.769v-8.54c0-2.037-.042-4.657-3.001-4.657-3.005 0-3.463 2.218-3.463 4.509V30H12V12zM2 12h6v18H2V12zm6-5a3 3 0 1 1-6 0 3 3 0 0 1 6 0z" /></symbol><symbol viewBox="0 0 32 32" id="icon-twitter"><path d="M25.282 2h4.905l-10.77 12.263L32 30.897h-9.874l-7.73-10.109-8.851 10.109H.64l11.41-13.116L0 2h10.12l6.984 9.234L25.282 2Zm-1.716 26.018h2.719L8.69 4.772H5.77l17.796 23.246Z" /></symbol><symbol viewBox="0 0 20 28" id="icon-viadeo"><path d="M16.406 17.281c0 2.234-.781 4.203-2.297 5.844-1.578 1.719-3.578 2.516-5.906 2.516-2.312 0-4.328-.781-5.906-2.516C.781 21.484 0 19.516 0 17.281c0-4.641 3.5-8.437 8.203-8.437.969 0 1.937.156 2.844.484a5.76 5.76 0 0 0-.609 1.969 5.751 5.751 0 0 0-2.234-.438c-3.547 0-6.156 3.031-6.156 6.469 0 3.5 2.594 6.359 6.156 6.359s6.141-2.859 6.141-6.359c0-.891-.156-1.766-.5-2.594a5.89 5.89 0 0 0 1.922-.766 8.616 8.616 0 0 1 .641 3.313zm-3.187-2.953c0 3.938-1.594 7.219-4.969 9.344l-.219.016c-.328 0-.656-.031-.969-.078 4.516-1.719 5.344-8.578 5.344-12.766 0-.531 0-1.078-.047-1.609.562 1.641.859 3.359.859 5.094zm-.86-5.125v.031c-.812-2.391-1.937-4.703-3.219-6.875 1.969 1.328 3.047 4.547 3.219 6.844zm3.813 3.172c-.969 0-1.828-.516-2.5-1.172 1.594-.875 3.609-2.234 4.531-3.859.109-.219.297-.625.328-.875-.906 2.031-3.219 3.625-5.375 4.125-.344-.531-.547-1.125-.547-1.766 0-.75.375-1.75.938-2.297.641-.609 1.594-.922 2.453-1.156 1.25-.344 2.266-1.313 2.812-2.484.812 1.156 1.156 2.562 1.156 3.953 0 .703-.109 1.984-.375 2.656-.578 1.406-1.75 2.875-3.422 2.875z" /></symbol><symbol viewBox="0 0 14 16" id="icon-xing"><path d="M5.29 9.57 10.53.44a.87.87 0 0 1 .76-.44h2.4a.3.3 0 0 1 .27.46l-5.3 9.11 3.37 5.97a.3.3 0 0 1-.27.46h-2.4a.87.87 0 0 1-.77-.45l-3.3-5.98zM2.56 6.39.92 3.63c-.12-.2.03-.46.27-.46h2.37c.32 0 .61.17.76.44l1.6 2.78-2.55 4.39a.88.88 0 0 1-.76.43H.31a.3.3 0 0 1-.27-.46l2.52-4.36z" /></symbol><symbol viewBox="0 0 32 32" id="icon-youtube"><path d="M31.681 9.6s-.313-2.206-1.275-3.175C29.187 5.15 27.825 5.144 27.2 5.069c-4.475-.325-11.194-.325-11.194-.325h-.012s-6.719 0-11.194.325c-.625.075-1.987.081-3.206 1.356C.631 7.394.325 9.6.325 9.6s-.319 2.588-.319 5.181v2.425c0 2.587.319 5.181.319 5.181s.313 2.206 1.269 3.175c1.219 1.275 2.819 1.231 3.531 1.369 2.563.244 10.881.319 10.881.319s6.725-.012 11.2-.331c.625-.075 1.988-.081 3.206-1.356.962-.969 1.275-3.175 1.275-3.175s.319-2.587.319-5.181v-2.425c-.006-2.588-.325-5.181-.325-5.181zM12.694 20.15v-8.994l8.644 4.513-8.644 4.481z" /></symbol></defs></svg>