<svg xmlns="http://www.w3.org/2000/svg" xmlns:xlink="http://www.w3.org/1999/xlink"><defs><symbol fill="none" viewBox="0 0 164 33" id="icon-BNPP"><path fill="url(#icon-BNPP_a)" d="M33.944 0H0v33h33.944V0Z" /><path fill="url(#icon-BNPP_b)" d="M32.891 16.693c0 6.89.327 13.94.327 13.94-.012.793-.532 1.299-1.191 1.299H2.648c-.659 0-1.112-.57-1.191-1.3 0 0-.847-6.02-.847-15.22 0-9.202.847-13.529.847-13.529.103-.758.538-1.299 1.191-1.299h29.379c.659 0 1.203.594 1.191 1.3 0-.007-.327 7.919-.327 14.809Z" /><path fill="url(#icon-BNPP_c)" d="M26.354 8.914c-2.098 1.193-2.74 1.293-5.02 2.622l.11-.247c1.197-1.27 1.717-1.8 2.503-2.922-2.104.112-5.152.353-7.335.823l.115-.23c1.977-.934 5.654-1.863 7.529-2.104-.46-.623-4.179-2.581-5.11-2.963l.108-.23c2.825.312 6.562 1.594 8.195 2.564.69-.212 1.39-.23 2.667-.341 0 0-.188.747-1.579 1.675.345.9-.483 5.874-1.167 7.197-.03-2.082-.218-4.704-1.016-5.844Z" /><path fill="url(#icon-BNPP_d)" d="m11.019 26.747.109-.23c-1.113-.423-2.232-.752-3.133-1.581.284-.77.611-1.37 1.137-2.129l.109-.235c-.956.141-1.826.482-2.655.641-.653-1.117-.907-2.646-1.234-4.098l-.108.23c-.188 1.658-.26 2.845-.019 4.168-.689.188-1.294.211-1.85.44l-.109.23c.883.53 1.609.935 2.607 1.393.532 1.117 1.088 1.87 1.983 2.734l.109-.229c-.163-.635-.369-1.158-.29-1.858 1.124.318 2.08.488 3.344.524Z" /><path fill="url(#icon-BNPP_e)" d="M14.114 10.174s-.448.77-.805 1.8h-.084c2.612.34 5.08 1.37 5.702 1.728l-.108.23c-2.716-.465-4.143-.412-5.153-.324-1.01.094-1.215.217-1.215.217-.58 1.235-.926 3.257-1.059 4.004l-.108.23c-.496-1.159-1.21-3.475-1.21-3.475-1.367.711-4.517 3.586-4.517 3.586 1.735-3.369 3.495-4.91 3.495-4.91-.605-.593-2.19-.893-3.344-.94l.109-.23c.725-.205 2.22-.293 3.223-.34 1.185-.035 1.905.03 1.905.03 1.04-.812 2.618-1.53 3.169-1.606Z" /><path fill="url(#icon-BNPP_f)" d="M17.44 24.657a25.788 25.788 0 0 1-1.62 1.951c-.896.241-1.966.13-2.789.16l-.109.229c.623.311 1.228.5 1.881.628-.526.465-1.234.824-1.723 1.147l-.11.23c1.059-.242 2.456-.683 3.496-1.276a6.431 6.431 0 0 0 1.415-.083s.11-.235.11-.23c-.067-.234-.28-.375-.346-.699.974-.735 1.682-1.405 2.498-2.204l.115-.23c-.804.541-1.784 1.282-2.727 1.717a38.419 38.419 0 0 1-.091-1.34Z" /><path fill="#fff" d="M26.463 8.678c-2.092 1.2-2.733 1.3-5.013 2.622 1.325-1.4 1.79-1.993 2.607-3.163-2.099.106-5.153.353-7.33.823 1.899-.982 5.654-2.081 7.644-2.34-.46-.617-4.185-2.58-5.11-2.957 2.951.224 6.555 1.294 8.303 2.334.69-.212 1.403-.217 2.685-.33-.326.548-.339.86-1.596 1.67.35.906-.484 5.88-1.168 7.197-.03-2.087-.217-4.715-1.022-5.856ZM11.127 26.517c-1.203-.435-2.068-.94-3.023-1.805.284-.764.61-1.364 1.143-2.134-.98.141-1.7.247-2.546.406-.684-1.17-.998-2.293-1.349-3.863-.187 1.664-.26 2.852-.018 4.174-.774.212-1.325.394-1.96.67.896.53 1.615.941 2.607 1.394.538 1.117 1.088 1.87 1.99 2.734a4.961 4.961 0 0 1-.182-2.087c1.119.305 2.074.47 3.338.511ZM14.26 9.979c-.375.47-.81 1.358-.925 1.763 3.102.406 5.594 1.958 5.594 1.958-2.715-.47-4.142-.411-5.152-.323-1.004.094-1.21.205-1.21.205-.732 1.558-1.173 4.233-1.173 4.233-.496-1.158-1.21-3.474-1.21-3.474-1.366.711-4.517 3.592-4.517 3.592 1.73-3.369 3.49-4.903 3.49-4.903-.605-.594-2.19-.894-3.35-.94.598-.242 2.146-.518 3.331-.571 1.185-.035 1.905.035 1.905.035 1.058-.811 2.667-1.493 3.217-1.575Zm3.29 14.447a25.579 25.579 0 0 1-1.627 1.952 10.347 10.347 0 0 1-2.897.388 7.46 7.46 0 0 0 1.881.635c-.653.576-1.203.982-1.838 1.375 1.058-.247 2.455-.682 3.495-1.281.544.017 1.052-.012 1.421-.088a7.777 7.777 0 0 1-.236-.93c.98-.734 1.688-1.404 2.504-2.204a16.926 16.926 0 0 1-2.613 1.487 27.032 27.032 0 0 1-.09-1.334Z" /><path fill="#152025" d="M42.483 10.882c.072 1.2.145 4.233.145 5.339 0 1.017 0 4.427-.182 5.902l-.012.118h5.485c2.691 0 5.546-.817 5.546-3.14 0-1.458-1.083-2.534-3.115-3.121 1.506-.395 2.51-1.394 2.51-2.535 0-1.899-2.244-2.61-4.354-2.663h-6.048l.025.1Zm4.227 1.164c2.285.018 3.12.47 3.12 1.682 0 .335-.103.629-.308.858-.436.512-1.288.776-2.377.711h-.054l-.641 1.617h.64c1.264-.035 2.36.353 2.921 1.023.26.306.394.67.394 1.047 0 1.264-1.143 1.916-3.405 1.916-.381 0-.998 0-1.385-.011-.067-1.688-.09-3.975-.09-4.663 0-.793.054-2.569.09-4.086.26-.059.695-.094 1.095-.094Zm19.394-1.266h-2.667l.11 2.893c.054 1.428.102 2.898.205 4.321-.17-.447-.333-.676-1.143-1.822-.006-.042-2.776-4.187-3.737-5.362l-.03-.03h-3.097v.106c.097 1.2.14 4.233.14 5.338 0 1.017 0 4.427-.146 5.903l-.024.118h2.757v-.118c-.157-2.798-.157-5.62-.157-8.36.097.33.218.617.653 1.24.037.077 4.784 6.797 5.02 7.185l.024.047h2.207l-.006-.118c-.17-1.47-.181-4.88-.181-5.902 0-1.106.078-4.14.145-5.339l.036-.106h-.109v.006Zm3.186.103c.11 1.199.152 4.233.152 5.338 0 1.017 0 4.427-.164 5.903v.117h3.284l-.012-.117c-.109-1.058-.17-3.075-.181-4.621.157.006.616.029.616.029l.466.012c4.318 0 6.416-1.111 6.416-3.445 0-2.658-2.945-3.27-5.4-3.316h-5.17v.1h-.007Zm4.046 1.276c1.536-.03 2.613.276 3.12.899.236.27.363.623.363 1.035 0 1.658-1.917 2.016-3.525 2.016l-.653-.035s-.158-.012-.266-.024c-.013-.382-.013-.887-.013-1.458 0-.723 0-1.575.037-2.369.23-.023.568-.065.937-.065Zm12.791-1.276c.103 1.199.164 4.233.164 5.338 0 1.017-.012 4.427-.182 5.903v.117h3.284l-.018-.117c-.103-1.058-.163-3.075-.163-4.621.15.006.592.029.592.029l.478.012c4.312 0 6.434-1.111 6.434-3.445 0-2.658-2.963-3.27-5.424-3.316h-5.158v.1h-.007Zm4.04 1.276c1.542-.03 2.613.276 3.127.899.236.27.356.623.356 1.035 0 1.658-1.916 2.016-3.501 2.016l-.647-.03s-.175-.01-.272-.023c-.018-.382-.018-.893-.018-1.458 0-.729 0-1.575.03-2.369.206-.03.562-.07.925-.07Zm10.934-1.379h-.043l-.024.06c-.611 1.628-4.548 9.982-5.17 11.258l-.055.14h2.794l.024-.064c.248-.788.575-1.67.938-2.616.114 0 2.334-.035 2.334-.035l1.929.011s.308.018.405.018c.496 1.235.877 2.158 1.046 2.634l.031.047h3.235l-5.231-11.459h-2.213v.006Zm.798 3.375c.26.547.937 2.07 1.699 3.886-.121.006-.266.006-.266.006l-1.433.018s-1.488-.018-1.736-.024c.617-1.452 1.234-2.763 1.736-3.886Zm7.964-3.268c.096 1.199.139 4.233.139 5.338 0 1.017 0 4.427-.182 5.903v.117h3.302l-.012-.117c-.175-1.482-.187-4.88-.187-5.903 0-.794.024-2.57.108-4.01.248-.017.629-.053.889-.053 1.524-.029 2.607.277 3.109.9.242.27.351.635.351 1.035 0 1.322-1.27 1.993-2.456 2.051-.399.018-.689-.035-.689-.035l-.23-.035.127.212c1.173 1.658 2.927 4.538 3.647 5.902l.024.047h3.526l-.085-.152a773.9 773.9 0 0 1-3.417-4.886s-.042-.041-.085-.088c1.809-.53 2.679-1.511 2.679-3.016 0-2.64-2.945-3.27-5.43-3.316h-5.14l.012.106Zm16.135-.107h-3.145l.019.107c.078 1.199.145 4.233.145 5.338 0 1.011-.012 4.421-.164 5.903l-.012.117h3.26l-.018-.117c-.127-1.482-.164-4.886-.164-5.903 0-1.105.079-4.14.164-5.338v-.106h-.085Zm3.071.103c.096 1.199.151 4.233.151 5.338 0 1.017 0 4.427-.164 5.903l-.024.117h5.491c2.685 0 5.546-.817 5.546-3.14 0-1.457-1.089-2.533-3.133-3.121 1.506-.394 2.522-1.393 2.522-2.534 0-1.899-2.244-2.61-4.336-2.663h-6.06l.007.1Zm4.233 1.164c2.304.017 3.138.47 3.138 1.681 0 .335-.103.63-.314.859-.417.511-1.3.776-2.383.71h-.054l-.635 1.618h.635c1.264-.035 2.352.352 2.915 1.023.272.305.405.67.405 1.046 0 1.264-1.149 1.917-3.423 1.917-.363 0-.98 0-1.367-.012-.097-1.687-.097-3.974-.097-4.662 0-.794.031-2.57.097-4.086.254-.059.69-.094 1.083-.094Zm14.835-1.267h-2.207l-.012.054c-.659 1.734-4.82 10.524-5.165 11.253l-.06.152h2.812l.018-.07c.236-.788.562-1.67.925-2.634.091 0 2.323-.035 2.323-.035l1.935.029s.338.006.411.006c.508 1.235.883 2.17 1.052 2.634l.03.07h3.254l-5.231-11.458h-.085Zm-1.354 3.37c.266.535.937 2.057 1.699 3.88-.115 0-.26.012-.26.012l-1.439.017s-1.506-.03-1.73-.03a99.047 99.047 0 0 1 1.73-3.88Zm7.571-.41c0 2.011 2.075 2.822 3.913 3.563 1.427.553 2.927 1.135 2.927 2.1 0 .287-.06.534-.224.705-.344.393-1.04.558-2.146.5-1.095-.042-2.329-.377-3.72-1l-.544-.253v2.499l.369.088.218.035c.683.165 2.007.47 3.326.47 3.459 0 5.527-1.34 5.527-3.562 0-2.087-2.135-2.893-4.015-3.628-1.391-.546-2.825-1.087-2.825-1.981 0-.259 0-1.011 1.797-1.011 1.324 0 2.606.523 3.338.793l.665.27-.006-.428v-2.076l-.659-.117c-.672-.13-1.796-.347-2.951-.347-2.994 0-4.99 1.37-4.99 3.38Z" /><defs></defs></symbol><linearGradient id="icon-BNPP_a" x1="16.971" x2="16.971" y1="-.812" y2="34.021" gradientUnits="userSpaceOnUse"><stop stop-color="#00774A" /><stop offset=".6" stop-color="#8CCAAE" /><stop offset="1" stop-color="#00975F" /></linearGradient><linearGradient id="icon-BNPP_b" x1="16.917" x2="16.917" y1="-8.195" y2="30.947" gradientUnits="userSpaceOnUse"><stop stop-color="#00975F" /><stop offset=".3" stop-color="#8CCAAE" /><stop offset=".55" stop-color="#00975F" /><stop offset=".835" stop-color="#00774A" /><stop offset=".869" stop-color="#007C4E" /><stop offset=".924" stop-color="#00895A" /><stop offset=".994" stop-color="#009E6E" /><stop offset="1" stop-color="#00A070" /></linearGradient><linearGradient id="icon-BNPP_c" x1="23.366" x2="23.366" y1="28.785" y2="3.455" gradientUnits="userSpaceOnUse"><stop stop-color="#00A97C" /><stop offset="1" stop-color="#00975F" /></linearGradient><linearGradient id="icon-BNPP_d" x1="7.202" x2="7.202" y1="28.782" y2="3.444" gradientUnits="userSpaceOnUse"><stop stop-color="#00A97C" /><stop offset="1" stop-color="#00975F" /></linearGradient><linearGradient id="icon-BNPP_e" x1="12.236" x2="12.236" y1="28.777" y2="3.455" gradientUnits="userSpaceOnUse"><stop stop-color="#00A97C" /><stop offset="1" stop-color="#00975F" /></linearGradient><linearGradient id="icon-BNPP_f" x1="16.59" x2="16.59" y1="28.783" y2="3.453" gradientUnits="userSpaceOnUse"><stop stop-color="#00A97C" /><stop offset="1" stop-color="#00975F" /></linearGradient><symbol viewBox="0 0 32 32" id="icon-arrow"><path d="M23.006 12.935c-1.759-1.608-3.524-3.207-5.271-4.827-.387-.359-.786-.741-1.045-1.19-.683-1.188-.438-2.338.566-3.173.974-.811 2.102-.743 3.052.135 3.609 3.333 7.225 6.661 10.776 10.057 1.253 1.197 1.221 2.87-.089 4.146a589.525 589.525 0 0 1-10.582 10.03c-1.074.995-2.398.906-3.3-.01-1.043-1.056-1.111-2.808.003-3.915 1.172-1.164 2.483-2.189 3.725-3.282.718-.632 1.424-1.279 2.19-1.969-.553-.565-1.165-.336-1.695-.338-5.878-.019-11.754-.016-17.632-.007-.7.001-1.407.009-2.046-.282-1.054-.479-1.748-1.297-1.649-2.5.1-1.216.712-2.13 2.029-2.33a12.82 12.82 0 0 1 1.907-.148c5.717-.012 11.433-.007 17.15-.007h1.743l.168-.39z" /></symbol><symbol fill="none" viewBox="0 0 9 8" id="icon-check"><path fill="#fff" d="M3.25 7.007.543 4.3 1.75 3.093l1.5 1.5 4-4L8.457 1.8 3.25 7.007Z" /></symbol><symbol viewBox="0 0 24 24" id="icon-close"><path d="M19 6.41 17.59 5 12 10.59 6.41 5 5 6.41 10.59 12 5 17.59 6.41 19 12 13.41 17.59 19 19 17.59 13.41 12 19 6.41Z" /></symbol><symbol viewBox="0 0 21 21" id="icon-contract"><path d="M5.25 19.25c-.481 0-.893-.171-1.236-.514A1.686 1.686 0 0 1 3.5 17.5v-14c0-.481.171-.893.514-1.236A1.684 1.684 0 0 1 5.25 1.75h6.278a1.73 1.73 0 0 1 1.225.503l4.244 4.244a1.731 1.731 0 0 1 .503 1.225V10.5h-1.75V7.875h-3.5a.844.844 0 0 1-.623-.252.844.844 0 0 1-.252-.623V3.5H5.25v14h5.25v1.75H5.25Zm0-1.75v-14 14Zm10.762-4.79.941.94-3.39 3.369v.919h.918l3.39-3.37.92.92-3.5 3.5a.874.874 0 0 1-.635.262h-1.969a.42.42 0 0 1-.306-.131.42.42 0 0 1-.131-.306v-1.97a.903.903 0 0 1 .262-.634l3.5-3.5Zm2.779 2.777-2.779-2.778 1.27-1.268a.83.83 0 0 1 .612-.241.83.83 0 0 1 .612.24l1.553 1.554a.83.83 0 0 1 .241.612.83.83 0 0 1-.24.613l-1.27 1.269Z" /></symbol><symbol fill="none" viewBox="0 0 22 22" id="icon-cross"><circle cx="11.5" cy="10.9" r="10.5" fill="#008859" /><path fill="#fff" d="M14.02 14.48a.188.188 0 0 0 .264 0l.796-.796a.188.188 0 0 0 0-.265L12.56 10.9l2.52-2.52a.188.188 0 0 0 0-.264l-.796-.796a.188.188 0 0 0-.265 0L11.5 9.84 8.98 7.32a.188.188 0 0 0-.264 0l-.796.796a.188.188 0 0 0 0 .265l2.52 2.519-2.52 2.519a.188.188 0 0 0 0 .265l.796.796a.188.188 0 0 0 .265 0l2.519-2.52 2.52 2.52Z" /></symbol><symbol viewBox="0 0 21 21" id="icon-domain"><path d="M2.625 19.25c-.481 0-.893-.171-1.236-.514A1.686 1.686 0 0 1 .875 17.5V7.875h1.75V17.5H17.5v1.75H2.625Zm3.5-3.5c-.481 0-.893-.171-1.236-.514A1.686 1.686 0 0 1 4.375 14V4.375H8.75v-1.75c0-.481.171-.893.514-1.236A1.684 1.684 0 0 1 10.5.875H14c.481 0 .893.171 1.236.514.343.343.514.755.514 1.236v1.75h4.375V14c0 .481-.171.893-.514 1.236a1.687 1.687 0 0 1-1.236.514H6.125Zm0-1.75h12.25V6.125H6.125V14ZM10.5 4.375H14v-1.75h-3.5v1.75ZM6.125 14V6.125 14Z" /></symbol><symbol viewBox="0 0 11 7" id="icon-down"><path d="M9.998.518a.75.75 0 0 1 .063 1.059L5.532 6.67.47 1.61A.75.75 0 1 1 1.53.549l3.938 3.937L8.939.58A.75.75 0 0 1 10 .518Z" clip-rule="evenodd" /></symbol><symbol fill="none" viewBox="0 0 20 20" id="icon-email"><path fill="#008859" d="M10 20a9.671 9.671 0 0 1-3.875-.788 10.126 10.126 0 0 1-3.187-2.15 10.125 10.125 0 0 1-2.15-3.187A9.67 9.67 0 0 1 0 10a9.64 9.64 0 0 1 .788-3.887 10.164 10.164 0 0 1 2.15-3.175A10.14 10.14 0 0 1 6.125.787 9.681 9.681 0 0 1 10 0a9.65 9.65 0 0 1 3.887.787 10.178 10.178 0 0 1 3.175 2.151 10.164 10.164 0 0 1 2.15 3.175A9.64 9.64 0 0 1 20 10v1.45c0 .983-.337 1.82-1.012 2.512S17.483 15 16.5 15c-.6 0-1.158-.133-1.675-.4a3.754 3.754 0 0 1-1.275-1.05A4.972 4.972 0 0 1 10 15c-1.383 0-2.562-.488-3.537-1.463C5.488 12.562 5 11.383 5 10s.488-2.563 1.463-3.538C7.438 5.487 8.617 5 10 5s2.563.487 3.538 1.462C14.513 7.437 15 8.617 15 10v1.45c0 .483.15.862.45 1.137.3.275.65.413 1.05.413s.75-.138 1.05-.413c.3-.275.45-.654.45-1.137V10c0-2.183-.788-4.063-2.363-5.638C14.062 2.787 12.183 2 10 2c-2.183 0-4.063.787-5.638 2.362C2.787 5.937 2 7.817 2 10s.787 4.062 2.362 5.637C5.937 17.212 7.817 18 10 18h4c.283 0 .52.096.712.288A.965.965 0 0 1 15 19c0 .283-.096.52-.288.712A.965.965 0 0 1 14 20h-4Zm0-7c.833 0 1.542-.292 2.125-.875A2.893 2.893 0 0 0 13 10c0-.833-.292-1.542-.875-2.125A2.893 2.893 0 0 0 10 7c-.833 0-1.542.292-2.125.875A2.893 2.893 0 0 0 7 10c0 .833.292 1.542.875 2.125A2.893 2.893 0 0 0 10 13Z" /></symbol><symbol fill="none" viewBox="0 0 20 28" id="icon-file"><path fill="#008859" d="m19.7 7.3-7-7A.908.908 0 0 0 12 0H2a2.006 2.006 0 0 0-2 2v24a2.006 2.006 0 0 0 2 2h16a2.007 2.007 0 0 0 2-2V8a.907.907 0 0 0-.3-.7ZM12 2.4 17.6 8H12V2.4ZM18 26H2V2h8v6a2.006 2.006 0 0 0 2 2h6v16Z" /></symbol><symbol fill="none" viewBox="0 0 22 22" id="icon-less"><path fill="#fff" d="M1.667 7.4h18.667v7H1.667z" /><path fill="#008859" d="M11 .4C5.202.4.5 5.102.5 10.9S5.202 21.4 11 21.4s10.5-4.701 10.5-10.5C21.5 5.102 16.798.4 11 .4Zm4.5 11.063a.188.188 0 0 1-.188.187H6.688a.188.188 0 0 1-.188-.188v-1.124c0-.104.084-.188.188-.188h8.625c.103 0 .187.084.187.188v1.125Z" /></symbol><symbol viewBox="0 0 21 21" id="icon-location"><path d="M10.5 14.416c1.444-1.167 2.534-2.29 3.27-3.37.737-1.078 1.105-2.092 1.105-3.04 0-.816-.15-1.513-.448-2.09-.3-.575-.668-1.042-1.105-1.4a4.254 4.254 0 0 0-1.422-.775c-.51-.16-.977-.241-1.4-.241-.423 0-.89.08-1.4.24-.51.161-.984.42-1.422.777-.437.357-.805.824-1.104 1.4-.3.576-.449 1.273-.449 2.09 0 .947.368 1.96 1.104 3.04.737 1.079 1.827 2.202 3.271 3.369Zm0 1.903a1.23 1.23 0 0 1-.372-.055A1.144 1.144 0 0 1 9.8 16.1c-1.823-1.415-3.183-2.793-4.08-4.134-.896-1.342-1.345-2.662-1.345-3.96 0-1.035.186-1.943.558-2.724a6.157 6.157 0 0 1 1.433-1.957 5.91 5.91 0 0 1 1.968-1.181A6.362 6.362 0 0 1 10.5 1.75a6.35 6.35 0 0 1 2.166.394 5.897 5.897 0 0 1 1.968 1.181 6.168 6.168 0 0 1 1.434 1.957c.371.78.557 1.689.557 2.724 0 1.298-.449 2.618-1.346 3.96-.896 1.341-2.256 2.72-4.079 4.134a.868.868 0 0 1-.317.164 1.342 1.342 0 0 1-.383.055Zm0-6.694c.481 0 .893-.171 1.236-.514.343-.343.514-.755.514-1.236s-.171-.893-.514-1.236a1.687 1.687 0 0 0-1.236-.514c-.481 0-.893.171-1.236.514a1.686 1.686 0 0 0-.514 1.236c0 .481.171.893.514 1.236.343.342.755.514 1.236.514ZM5.25 19.25a.847.847 0 0 1-.624-.252.846.846 0 0 1-.251-.623c0-.248.084-.456.251-.623a.847.847 0 0 1 .624-.252h10.5c.248 0 .456.084.623.252a.844.844 0 0 1 .252.623.844.844 0 0 1-.252.623.844.844 0 0 1-.623.252H5.25Z" /></symbol><symbol viewBox="0 0 18 12" id="icon-menu"><path d="M0 0h18v2H0V0Zm0 5h18v2H0V5Zm0 5h18v2H0v-2Z" /></symbol><symbol fill="none" viewBox="0 0 18 18" id="icon-phone"><path fill="#008859" d="M1.05 18c-.3 0-.55-.1-.75-.3-.2-.2-.3-.45-.3-.75V12.9c0-.233.075-.438.225-.613.15-.175.342-.287.575-.337l3.45-.7c.233-.033.471-.013.713.062.241.075.437.188.587.338L7.9 14a18.294 18.294 0 0 0 3.475-2.725A16.607 16.607 0 0 0 14 7.9l-2.4-2.45a1.027 1.027 0 0 1-.288-.513A1.805 1.805 0 0 1 11.3 4.3l.65-3.5a.88.88 0 0 1 .325-.575A.96.96 0 0 1 12.9 0h4.05c.3 0 .55.1.75.3.2.2.3.45.3.75 0 2.15-.48 4.246-1.438 6.287a19.046 19.046 0 0 1-3.8 5.425 19.05 19.05 0 0 1-5.424 3.8C5.296 17.521 3.2 18 1.05 18Z" /></symbol><symbol fill="none" viewBox="0 0 22 28" id="icon-pin"><path fill="#03A776" fill-rule="evenodd" d="M2.564 18.051 11 28l8.439-9.953c.045-.053.345-.447.345-.447l.001-.003A10.884 10.884 0 0 0 22 11a11 11 0 1 0-22 0 10.889 10.889 0 0 0 2.216 6.6c.115.151.23.302.348.451Zm1.357-1.515-.109-.141h.001A8.905 8.905 0 0 1 2 11a9 9 0 1 1 18 0 8.9 8.9 0 0 1-1.811 5.392l-.036.048-.243.318-6.91 8.15-6.901-8.139c-.029-.036-.11-.142-.178-.233Zm4.301-1.379a5 5 0 1 0 5.556-8.314 5 5 0 0 0-5.556 8.314Zm1.111-6.651a3 3 0 1 1 3.334 4.989 3 3 0 0 1-3.334-4.99Z" clip-rule="evenodd" /></symbol><symbol fill="none" viewBox="0 0 22 22" id="icon-plus"><path fill="#fff" d="M1.667 6.233h18.667v9.333H1.667z" /><path fill="#008859" d="M11 .4C5.202.4.5 5.102.5 10.9S5.202 21.4 11 21.4s10.5-4.701 10.5-10.5C21.5 5.102 16.798.4 11 .4Zm4.5 11.063a.188.188 0 0 1-.188.187H11.75v3.563a.188.188 0 0 1-.188.187h-1.124a.188.188 0 0 1-.188-.188V11.65H6.687a.188.188 0 0 1-.187-.188v-1.124c0-.104.084-.188.188-.188h3.562V6.588c0-.104.084-.188.188-.188h1.124c.104 0 .188.084.188.188v3.562h3.563c.103 0 .187.084.187.188v1.125Z" /></symbol><symbol viewBox="0 0 24 25" id="icon-reset"><g mask="url(#icon-reset_a)"><path d="M12 22.5c-1.25 0-2.42-.237-3.512-.712a9.142 9.142 0 0 1-2.85-1.926 9.143 9.143 0 0 1-1.926-2.85A8.709 8.709 0 0 1 3 13.5h2c0 1.95.68 3.604 2.038 4.962C8.396 19.821 10.05 20.5 12 20.5c1.95 0 3.604-.68 4.962-2.038C18.321 17.104 19 15.45 19 13.5c0-1.95-.68-3.604-2.038-4.963C15.604 7.179 13.95 6.5 12 6.5h-.15l1.55 1.55L12 9.5l-4-4 4-4 1.4 1.45-1.55 1.55H12c1.25 0 2.421.238 3.513.713a9.154 9.154 0 0 1 2.85 1.924 9.167 9.167 0 0 1 1.925 2.85A8.715 8.715 0 0 1 21 13.5c0 1.25-.237 2.42-.712 3.512a9.151 9.151 0 0 1-1.925 2.85 9.158 9.158 0 0 1-2.85 1.926A8.715 8.715 0 0 1 12 22.5Z" /></g></symbol><mask id="icon-reset_a" width="24" height="25" x="0" y="0" maskUnits="userSpaceOnUse" style="mask-type:alpha"><path d="M0 .5h24v24H0z" /></mask><symbol viewBox="0 0 19 19" id="icon-search"><path d="M19 18.006 13.693 12.7a7.743 7.743 0 1 0-.994.994L18.006 19l.994-.994ZM1.43 7.756a6.325 6.325 0 1 1 6.326 6.325A6.332 6.332 0 0 1 1.43 7.756Z" /></symbol><symbol viewBox="0 0 24 24" id="icon-targetblank"><path d="M3 3v18h18v-9h-2v7H5V5h7V3H3zm11 0v2h3.586l-9.293 9.293 1.414 1.414L19 6.414V10h2V3h-7z" /></symbol><symbol viewBox="0 0 16 16" id="icon-up"><path d="m0 8 1.41 1.41L7 3.83V16h2V3.83l5.58 5.59L16 8 8 0 0 8Z" /></symbol></defs></svg>